<svg width="34" height="34" viewBox="0 0 34 34" fill="none" xmlns="http://www.w3.org/2000/svg">
<g clip-path="url(#clip0_1_311)">
<path d="M29.5233 6.5308C28.7997 5.80689 27.9406 5.23264 26.9951 4.84084C26.0495 4.44905 25.036 4.24739 24.0125 4.24739C22.989 4.24739 21.9755 4.44905 21.0299 4.84084C20.0843 5.23264 19.2252 5.80689 18.5017 6.5308L17 8.03247L15.4983 6.5308C14.0368 5.06924 12.0545 4.24815 9.9875 4.24815C7.92054 4.24815 5.93823 5.06924 4.47667 6.5308C3.01511 7.99237 2.19401 9.97467 2.19401 12.0416C2.19401 14.1086 3.01511 16.0909 4.47667 17.5525L17 30.0758L29.5233 17.5525C30.2472 16.8289 30.8215 15.9698 31.2133 15.0242C31.6051 14.0786 31.8067 13.0652 31.8067 12.0416C31.8067 11.0181 31.6051 10.0046 31.2133 9.05905C30.8215 8.11348 30.2472 7.25437 29.5233 6.5308Z" stroke="#1E1E1E" stroke-width="4" stroke-linecap="round" stroke-linejoin="round"/>
</g>
<defs>
<clipPath id="clip0_1_311">
<rect width="33.1707" height="33.1707" fill="white" transform="scale(1.025)"/>
</clipPath>
</defs>
</svg>
