<svg width="24" height="24" viewBox="0 0 24 24" fill="none" xmlns="http://www.w3.org/2000/svg">
<path d="M12 14.9891C13.6508 14.9891 14.9891 13.6508 14.9891 12C14.9891 10.3491 13.6508 9.01081 12 9.01081C10.3491 9.01081 9.01081 10.3491 9.01081 12C9.01081 13.6508 10.3491 14.9891 12 14.9891Z" stroke="white" stroke-width="2" stroke-linecap="round" stroke-linejoin="round"/>
<path d="M19.3732 14.9891C19.2406 15.2897 19.201 15.623 19.2597 15.9463C19.3183 16.2695 19.4724 16.5677 19.7021 16.8026L19.7618 16.8624C19.9471 17.0474 20.0941 17.2672 20.1944 17.5091C20.2947 17.751 20.3463 18.0104 20.3463 18.2722C20.3463 18.5341 20.2947 18.7934 20.1944 19.0354C20.0941 19.2773 19.9471 19.4971 19.7618 19.6821C19.5768 19.8674 19.357 20.0144 19.1151 20.1147C18.8731 20.215 18.6138 20.2666 18.352 20.2666C18.0901 20.2666 17.8308 20.215 17.5888 20.1147C17.3469 20.0144 17.1271 19.8674 16.9421 19.6821L16.8823 19.6223C16.6475 19.3926 16.3492 19.2386 16.026 19.1799C15.7027 19.1213 15.3694 19.1609 15.0689 19.2935C14.7742 19.4198 14.5228 19.6296 14.3458 19.8969C14.1687 20.1642 14.0737 20.4775 14.0725 20.7981V20.9675C14.0725 21.496 13.8625 22.0029 13.4888 22.3766C13.1151 22.7503 12.6082 22.9602 12.0797 22.9602C11.5512 22.9602 11.0443 22.7503 10.6706 22.3766C10.2969 22.0029 10.0869 21.496 10.0869 20.9675V20.8778C10.0792 20.548 9.97245 20.2281 9.78053 19.9598C9.58862 19.6915 9.32043 19.4871 9.01081 19.3732C8.71029 19.2406 8.37692 19.201 8.05369 19.2597C7.73047 19.3183 7.43221 19.4724 7.19739 19.7021L7.1376 19.7618C6.95253 19.9471 6.73275 20.0941 6.49083 20.1944C6.24891 20.2947 5.9896 20.3463 5.72771 20.3463C5.46583 20.3463 5.20652 20.2947 4.9646 20.1944C4.72268 20.0941 4.5029 19.9471 4.31783 19.7618C4.13254 19.5768 3.98556 19.357 3.88527 19.1151C3.78499 18.8731 3.73337 18.6138 3.73337 18.352C3.73337 18.0901 3.78499 17.8308 3.88527 17.5888C3.98556 17.3469 4.13254 17.1271 4.31783 16.9421L4.37761 16.8823C4.60731 16.6475 4.7614 16.3492 4.82001 16.026C4.87862 15.7027 4.83905 15.3694 4.70642 15.0689C4.58011 14.7742 4.37039 14.5228 4.10307 14.3458C3.83575 14.1687 3.5225 14.0737 3.20187 14.0725H3.03249C2.50397 14.0725 1.9971 13.8625 1.62338 13.4888C1.24966 13.1151 1.03971 12.6082 1.03971 12.0797C1.03971 11.5512 1.24966 11.0443 1.62338 10.6706C1.9971 10.2969 2.50397 10.0869 3.03249 10.0869H3.12216C3.45196 10.0792 3.77181 9.97245 4.04013 9.78053C4.30845 9.58862 4.51283 9.32043 4.62671 9.01081C4.75934 8.71029 4.79891 8.37692 4.7403 8.05369C4.68169 7.73047 4.5276 7.43221 4.2979 7.19739L4.23811 7.1376C4.05283 6.95253 3.90585 6.73275 3.80556 6.49083C3.70528 6.24891 3.65366 5.9896 3.65366 5.72771C3.65366 5.46583 3.70528 5.20652 3.80556 4.9646C3.90585 4.72268 4.05283 4.5029 4.23811 4.31783C4.42319 4.13254 4.64297 3.98556 4.88489 3.88527C5.12681 3.78499 5.38612 3.73337 5.648 3.73337C5.90989 3.73337 6.1692 3.78499 6.41112 3.88527C6.65304 3.98556 6.87282 4.13254 7.05789 4.31783L7.11768 4.37761C7.3525 4.60731 7.65076 4.7614 7.97398 4.82001C8.29721 4.87862 8.63058 4.83905 8.9311 4.70642H9.01081C9.30551 4.58011 9.55685 4.37039 9.73389 4.10307C9.91092 3.83575 10.0059 3.5225 10.0072 3.20187V3.03249C10.0072 2.50397 10.2172 1.9971 10.5909 1.62338C10.9646 1.24966 11.4715 1.03971 12 1.03971C12.5285 1.03971 13.0354 1.24966 13.4091 1.62338C13.7828 1.9971 13.9928 2.50397 13.9928 3.03249V3.12216C13.994 3.44278 14.089 3.75604 14.2661 4.02336C14.4431 4.29068 14.6944 4.5004 14.9891 4.62671C15.2897 4.75934 15.623 4.79891 15.9463 4.7403C16.2695 4.68169 16.5677 4.5276 16.8026 4.2979L16.8624 4.23811C17.0474 4.05283 17.2672 3.90585 17.5091 3.80556C17.751 3.70528 18.0104 3.65366 18.2722 3.65366C18.5341 3.65366 18.7934 3.70528 19.0354 3.80556C19.2773 3.90585 19.4971 4.05283 19.6821 4.23811C19.8674 4.42319 20.0144 4.64297 20.1147 4.88489C20.215 5.12681 20.2666 5.38612 20.2666 5.648C20.2666 5.90989 20.215 6.1692 20.1147 6.41112C20.0144 6.65304 19.8674 6.87282 19.6821 7.05789L19.6223 7.11768C19.3926 7.3525 19.2386 7.65076 19.1799 7.97398C19.1213 8.29721 19.1609 8.63058 19.2935 8.9311V9.01081C19.4198 9.30551 19.6296 9.55685 19.8969 9.73389C20.1642 9.91092 20.4775 10.0059 20.7981 10.0072H20.9675C21.496 10.0072 22.0029 10.2172 22.3766 10.5909C22.7503 10.9646 22.9602 11.4715 22.9602 12C22.9602 12.5285 22.7503 13.0354 22.3766 13.4091C22.0029 13.7828 21.496 13.9928 20.9675 13.9928H20.8778C20.5572 13.994 20.2439 14.089 19.9766 14.2661C19.7093 14.4431 19.4996 14.6944 19.3732 14.9891Z" stroke="white" stroke-width="2" stroke-linecap="round" stroke-linejoin="round"/>
</svg>
