<svg width="34" height="33" viewBox="0 0 34 33" fill="none" xmlns="http://www.w3.org/2000/svg">
<path d="M12.1109 18.5762L21.7404 24.0487M21.7263 8.95123L12.1109 14.4237M29.6075 6.87498C29.6075 9.15315 27.7139 11 25.3779 11C23.0419 11 21.1483 9.15315 21.1483 6.87498C21.1483 4.5968 23.0419 2.74997 25.3779 2.74997C27.7139 2.74997 29.6075 4.5968 29.6075 6.87498ZM12.689 16.5C12.689 18.7782 10.7953 20.625 8.45934 20.625C6.12337 20.625 4.2297 18.7782 4.2297 16.5C4.2297 14.2218 6.12337 12.375 8.45934 12.375C10.7953 12.375 12.689 14.2218 12.689 16.5ZM29.6075 26.125C29.6075 28.4032 27.7139 30.25 25.3779 30.25C23.0419 30.25 21.1483 28.4032 21.1483 26.125C21.1483 23.8468 23.0419 22 25.3779 22C27.7139 22 29.6075 23.8468 29.6075 26.125Z" stroke="#1E1E1E" stroke-width="3" stroke-linecap="round" stroke-linejoin="round"/>
</svg>
